<?xml version="1.0" encoding="utf-8"?>
<!-- Generator: Adobe Illustrator 18.0.0, SVG Export Plug-In . SVG Version: 6.00 Build 0)  -->
<!DOCTYPE svg PUBLIC "-//W3C//DTD SVG 1.1//EN" "http://www.w3.org/Graphics/SVG/1.1/DTD/svg11.dtd">
<svg version="1.1" id="Layer_1" xmlns="http://www.w3.org/2000/svg" xmlns:xlink="http://www.w3.org/1999/xlink" x="0px" y="0px"
	 viewBox="0 0 62.8 63" enable-background="new 0 0 62.8 63" xml:space="preserve">
<circle fill="#FFFFFF" cx="31.3" cy="31.5" r="31.5"/>
<g>
	<path fill="none" stroke="#C74F3E" stroke-width="4" stroke-miterlimit="10" d="M12.2,28.9c0-10.5,8.5-19,19-19s19,8.5,19,19"/>
	<path fill="#C74F3E" d="M12.2,43.8L12.2,43.8c-1.9,0-3.4-1.5-3.4-3.4v-6.2c0-1.9,1.5-3.4,3.4-3.4h0c1.9,0,3.4,1.5,3.4,3.4v6.2
		C15.5,42.2,14,43.8,12.2,43.8z"/>
	<path fill="#C74F3E" d="M50.1,43.8L50.1,43.8c-1.9,0-3.4-1.5-3.4-3.4v-6.2c0-1.9,1.5-3.4,3.4-3.4h0c1.9,0,3.4,1.5,3.4,3.4v6.2
		C53.5,42.2,52,43.8,50.1,43.8z"/>
</g>
</svg>
