<svg version="1.1" id="Layer_1" xmlns="http://www.w3.org/2000/svg" xmlns:xlink="http://www.w3.org/1999/xlink" x="0px" y="0px"
	 width="40px" height="40px" viewBox="0 0 40 40" enable-background="new 0 0 40 40" xml:space="preserve">
<path d="M20,0C8.954,0,0,8.954,0,20c0,11.045,8.954,20,20,20c11.045,0,20-8.955,20-20C40,8.954,31.045,0,20,0z M27.953,15.925
	c0.008,0.176,0.012,0.353,0.012,0.53c0,5.418-4.127,11.665-11.674,11.665c-2.317,0-4.474-0.679-6.29-1.843
	c0.321,0.039,0.647,0.059,0.979,0.059c1.922,0,3.691-0.656,5.096-1.755c-1.795-0.033-3.311-1.218-3.833-2.847
	c0.25,0.048,0.508,0.074,0.772,0.074c0.375,0,0.835-0.051,1.18-0.145C12.316,21.286,11,19.629,11,17.643c0-0.017,0-0.034,0-0.051
	c0,0.307,1.088,0.491,1.76,0.513c-1.101-0.735-1.875-1.99-1.875-3.413c0-0.751,0.178-1.456,0.531-2.061
	c2.024,2.48,5.035,4.113,8.445,4.284c-0.07-0.3-0.112-0.613-0.112-0.934c0-2.265,1.833-4.1,4.101-4.1
	c1.18,0,2.244,0.498,2.993,1.294c0.935-0.184,1.812-0.525,2.605-0.995c-0.308,0.958-0.958,1.761-1.806,2.268
	c0.83-0.099,1.621-0.319,2.356-0.645C29.45,14.625,28.754,15.347,27.953,15.925z"/>
</svg>