<svg version="1.1" id="Layer_1" xmlns="http://www.w3.org/2000/svg" xmlns:xlink="http://www.w3.org/1999/xlink" x="0px" y="0px"
	 width="40.194px" height="39.999px" viewBox="0 0 40.194 39.999" enable-background="new 0 0 40.194 39.999" xml:space="preserve">
<g>
	<path d="M20.936,39.999c-0.067,0.003-0.133,0.006-0.2,0.008C20.802,40.004,20.869,40.001,20.936,39.999z"/>
	<path d="M21.323,39.978c-0.098,0.006-0.197,0.012-0.295,0.017C21.126,39.989,21.225,39.984,21.323,39.978z"/>
	<path d="M20.606,40.011c-0.059,0.002-0.117,0.003-0.176,0.004C20.489,40.014,20.548,40.013,20.606,40.011z"/>
	<path d="M20.308,40.018c-0.088,0.001-0.176,0.002-0.264,0.002C20.132,40.02,20.22,40.019,20.308,40.018z"/>
	<path d="M21.635,39.955c-0.084,0.007-0.168,0.013-0.253,0.019C21.466,39.968,21.551,39.961,21.635,39.955z"/>
	<path d="M20.01,40.02c0.001,0,0.002,0,0.004,0c-0.023,0-0.046,0-0.069,0C19.966,40.02,19.988,40.02,20.01,40.02z"/>
	<path d="M18.873,39.988c0.071,0.004,0.141,0.007,0.211,0.011C19.014,39.995,18.944,39.992,18.873,39.988z"/>
	<path d="M19.36,40.009c0.061,0.002,0.122,0.003,0.183,0.005C19.482,40.013,19.421,40.011,19.36,40.009z"/>
	<path d="M19.114,40c0.066,0.003,0.132,0.005,0.198,0.008C19.246,40.005,19.18,40.003,19.114,40z"/>
	<path d="M19.619,40.016c0.053,0.001,0.105,0.002,0.159,0.003C19.724,40.018,19.671,40.017,19.619,40.016z"/>
	<path d="M22.259,39.895c-0.082,0.009-0.164,0.018-0.247,0.026C22.095,39.913,22.177,39.904,22.259,39.895z"/>
	<path d="M21.955,39.926c-0.084,0.008-0.169,0.016-0.254,0.023C21.786,39.942,21.87,39.935,21.955,39.926z"/>
	<path d="M20.01,0C8.959,0,0,8.959,0,20.01c0,10.667,8.141,19.383,18.659,19.978C17.823,39.94,17,39.841,16,39.695V24h-5v-5h5
		v-4.972c0-5.169,3.442-7.984,8.054-7.984C26.262,6.044,28,6.209,29,6.282v5.402l-3.103,0.001c-2.508,0-2.897,1.191-2.897,2.94V19
		h5.622l-0.779,5H23v15.847c9-1.292,17.194-9.681,17.194-19.837C40.194,8.959,31.061,0,20.01,0z"/>
</g>
</svg>