<?xml version="1.0" encoding="utf-8"?>
<!-- Generator: Adobe Illustrator 18.0.0, SVG Export Plug-In . SVG Version: 6.00 Build 0)  -->
<!DOCTYPE svg PUBLIC "-//W3C//DTD SVG 1.1//EN" "http://www.w3.org/Graphics/SVG/1.1/DTD/svg11.dtd">
<svg version="1.1" id="Layer_1" xmlns="http://www.w3.org/2000/svg" xmlns:xlink="http://www.w3.org/1999/xlink" x="0px" y="0px"
	 viewBox="0 0 176.9 176.4" enable-background="new 0 0 176.9 176.4" xml:space="preserve">
<path d="M88.6-0.1C39.9-0.1,0.4,39.4,0.4,88.1s39.5,88.2,88.2,88.2s88.2-39.5,88.2-88.2S137.4-0.1,88.6-0.1z M139,61c0,0-2,0-4.7,0
	c-2.7,0-3.3,2.5-3.3,2.5s0.7,44.2,0.7,48.9c0,3.3,3,3.6,3,3.6h4.4v11h-36v-11h8V64l-19.4,63H78.3L61,65.6V116h8v11H40v-10
	c0,0,2,0,4.1,0c3.2,0,2.9-4.4,2.9-4.4s0-47,0-49.7s-2.4-2-2.4-2H39V50h38l11.7,43.8l14-43.8H139V61z"/>
</svg>
