<?xml version="1.0" encoding="utf-8"?>
<!-- Generator: Adobe Illustrator 18.0.0, SVG Export Plug-In . SVG Version: 6.00 Build 0)  -->
<!DOCTYPE svg PUBLIC "-//W3C//DTD SVG 1.1//EN" "http://www.w3.org/Graphics/SVG/1.1/DTD/svg11.dtd">
<svg version="1.1" id="Layer_1" xmlns="http://www.w3.org/2000/svg" xmlns:xlink="http://www.w3.org/1999/xlink" x="0px" y="0px"
	 viewBox="0 0 705.7 703.1" enable-background="new 0 0 705.7 703.1" xml:space="preserve">
<path d="M352.9,1.2c-193.8,0-351,157.1-351,351s157.1,351,351,351s351-157.1,351-351S546.7,1.2,352.9,1.2z M76.7,440.3
	c-0.2,1-1.6,1.8-2.5,2.7c-0.7-0.9-1.8-1.7-2-2.7c-4.4-20.2-4.3-40.4,0.1-60.6c0.2-1.1,1.5-2,2.2-3c0.7,0.9,1.9,1.7,2.1,2.7
	c1.7,10.2,3.3,20.5,4.9,30.7C79.9,420.3,78.4,430.3,76.7,440.3z M97.7,459.4c-0.1,1-1.4,1.8-2.1,2.7c-0.8-0.9-2.3-1.8-2.5-2.8
	c-5.9-33-5.6-66.1,0-99.1c0.2-1,1.6-1.9,2.4-2.8c0.7,0.9,1.9,1.8,2,2.7c2.2,16.6,4.3,33.2,6.5,50.1C102,426.5,99.9,443,97.7,459.4z
	 M120.6,468.3c-0.2,1.6-1.2,3-3,2.8c-2.6-0.3-2.6-2.6-2.8-4.5c-3.9-34-6.3-68-1-102c0.7-4.4,0.7-8.9,1.2-13.3c0.2-1.8,0.3-4,2.7-4
	c2.6,0,2.9,2.2,3.1,4.1c1.8,18.4,3.6,36.7,5.8,58.5C124.7,427.2,122.7,447.7,120.6,468.3z M143.6,469.6c-0.2,2.1-0.9,4-3.5,3.9
	c-2.5-0.1-2.9-2.2-3.2-4.2c-5.3-40.1-5-80.2,0.1-120.3c0.3-2,0.6-4.1,3.2-4.1c2.5,0,3.1,2.1,3.2,4.1c1.9,20.3,3.8,40.6,5.7,61.3
	C147.4,429.9,145.5,449.8,143.6,469.6z M166.8,470.1c-0.2,2.4-1.1,4.5-4,4.4c-2.8-0.1-3.4-2.3-3.7-4.7c-4.6-38.7-5-77.5,0.1-116.2
	c0.3-2.4,0.9-4.6,3.7-4.6c2.6-0.1,3.5,2,3.7,4.2c1.8,19.1,3.6,38.1,5.4,57.2C170.3,430.3,168.6,450.2,166.8,470.1z M190.4,468.2
	c-0.4,3-0.2,6.7-4.5,6.7c-4.5,0-4.5-3.8-4.7-7c-2-32.4-6.2-64.7-2.5-91.6c1.1-23.2,1.9-40.8,2.8-58.4c0.1-2.7,0.6-5.6,4.2-5.6
	c3.5,0,4.1,2.8,4.3,5.5C192.9,368,197.4,418.1,190.4,468.2z M214.1,466.4c-0.5,3.7,0.4,8.8-5.3,8.7c-5.5-0.1-4.5-5-4.8-8.6
	c-2.9-34.3-5.2-68.6,0.3-103c0-22.2,0-44.4,0-66.5c0-3.3,0.7-6.6,4.6-6.7c4-0.1,4.6,3.4,4.7,6.6
	C215.4,353.3,221.2,409.8,214.1,466.4z M237.6,467c-0.4,3.7-0.3,7.8-5.3,7.9c-5,0.2-5.4-3.9-5.6-7.6c-1.6-30.2-5.4-60.3,0.3-90.7
	c0-29.7,0-59.4,0-89.1c0-3.7,0.5-7.5,5.2-7.5c4.4,0,5,3.7,5.1,7.2C238.6,347.2,244.7,407.1,237.6,467z M261.6,464.3
	c-0.5,4.4,1,10.8-6,10.8c-7.1-0.1-5.9-6.5-6.1-11.1c-1.5-29.6-4.9-59.2,0.5-89c0-30.5,0-61,0-91.5c0-4,0.6-8,5.7-7.9
	c4.9,0.1,5.2,4,5.3,7.9C262.4,343.7,268.1,404,261.6,464.3z M285.8,465.1c-0.5,4.7-0.3,10-6.7,9.9c-6.2-0.1-6.1-5.2-6.3-9.8
	c-1.3-29.5-4.5-59,0.2-88.6c0-29.8,0-59.7,0-89.5c0-4.4,0.7-8.9,6.4-8.8c5.5,0.1,5.9,4.5,5.9,8.7
	C286.4,346.4,291.6,405.7,285.8,465.1z M309.7,467.8c-0.3,4.3-2,7.5-6.6,7.4c-4.9,0-6.5-3.4-6.9-7.8c-4.9-59.1-0.7-118.2,0.2-177.3
	c0.1-4.3,1.8-7.9,6.8-7.7c5,0.2,6.3,3.7,6.3,8.1c0,29.1,0,58.3,0,87.4C314.1,408,311.4,437.8,309.7,467.8z M334.3,466.1
	c-0.3,5-1.6,9.1-7.3,9.2c-5.8,0.1-7.1-4.2-7.4-9.1c-3.6-51.9-1.6-103.8-0.4-155.7c0.3-14.3,0.5-28.6,0.8-42.9
	c0.1-4.8,1.5-8.9,7.1-8.7c5.4,0.2,6.9,4.2,6.9,9c0,33,0,66.1,0,99.1C338.4,400.1,336.1,433.1,334.3,466.1z M359,461.1
	c-0.1,1.7-0.2,3.3-0.3,5c-0.4,4.9-2.2,8.9-7.9,8.8c-5.7-0.1-7.4-3.9-7.8-8.9c-2.2-35.5-3.8-70.9,0.4-106.5c0-34.7,0-69.4,0-104
	c0-5.4,1.3-10.3,7.6-10.3c6.1,0,7.3,4.9,7.4,10C358.8,323.8,364.5,392.5,359,461.1z M564.5,475.7c-62.8,0.2-125.5-0.1-188.3,0
	c-7.7,0-11.1-3.6-11.1-11.3c0.1-36.4,0-72.4,0-109.4c0.2,0,0.3,0,0.5,0c0-35,0.1-71.4-0.1-107.2c0-6.3,2.3-9.4,8.1-11.5
	c74.1-27.7,155,21.3,165.2,100.1c0.5,3.6,1.4,4.4,4.9,3.3c28.5-8.8,53.9-3.1,74.1,19c20.1,21.9,24.3,48,12.4,75.1
	C617.9,461.7,595.1,475.6,564.5,475.7z"/>
</svg>
