<svg version="1.1" id="Layer_1" xmlns="http://www.w3.org/2000/svg" xmlns:xlink="http://www.w3.org/1999/xlink" x="0px" y="0px"
	 width="40px" height="40px" viewBox="0 0 40 40" enable-background="new 0 0 40 40" xml:space="preserve">
<g>
	<g>
		<path d="M16.866,22.482c-0.129-0.017-0.459,0-0.99,0.049c-0.523,0.074-1.059,0.194-1.605,0.359
			c-0.129,0.05-0.31,0.124-0.543,0.223c-0.233,0.107-0.471,0.26-0.712,0.458c-0.233,0.206-0.431,0.462-0.591,0.768
			c-0.186,0.322-0.278,0.709-0.278,1.164c0,0.891,0.402,1.625,1.207,2.204c0.765,0.578,1.811,0.875,3.139,0.891
			c1.191-0.017,2.101-0.28,2.729-0.792c0.612-0.504,0.918-1.152,0.918-1.944c0-0.644-0.209-1.205-0.628-1.684
			c-0.443-0.454-1.135-1.011-2.077-1.671C17.272,22.49,17.083,22.482,16.866,22.482z"/>
	</g>
	<g>
		<path d="M17.036,11.64c-0.399-0.29-0.856-0.442-1.375-0.459c-0.685,0.017-1.255,0.293-1.709,0.831
			c-0.383,0.562-0.566,1.191-0.549,1.885c0,0.918,0.267,1.873,0.803,2.865c0.259,0.463,0.593,0.856,1.003,1.178
			c0.41,0.323,0.877,0.483,1.404,0.483c0.666-0.024,1.22-0.264,1.664-0.719c0.214-0.322,0.352-0.653,0.413-0.992
			c0.037-0.339,0.055-0.624,0.055-0.855c0-1-0.255-2.009-0.765-3.026C17.741,12.342,17.426,11.945,17.036,11.64z"/>
	</g>
	<g>
		<path d="M20,0C8.954,0,0,8.954,0,20s8.954,20,20,20s20-8.954,20-20S31.046,0,20,0z M19.697,11.681
			c0.19,0.198,0.377,0.449,0.56,0.738c0.174,0.272,0.329,0.594,0.464,0.965c0.111,0.371,0.167,0.804,0.167,1.299
			c-0.015,0.908-0.214,1.634-0.599,2.179c-0.188,0.264-0.388,0.507-0.599,0.73c-0.233,0.223-0.482,0.45-0.745,0.681
			c-0.151,0.157-0.29,0.334-0.418,0.532c-0.151,0.206-0.226,0.445-0.226,0.718c0,0.264,0.077,0.482,0.232,0.656
			c0.131,0.166,0.258,0.31,0.382,0.434l0.857,0.705c0.533,0.438,1,0.92,1.402,1.448c0.379,0.537,0.576,1.238,0.591,2.104
			c0,1.229-0.541,2.318-1.623,3.268c-1.122,0.982-2.74,1.489-4.855,1.522c-1.771-0.017-3.093-0.396-3.966-1.137
			C10.441,27.832,10,27.004,10,26.04c0-0.47,0.144-0.992,0.43-1.569c0.278-0.577,0.782-1.083,1.511-1.52
			c0.819-0.47,1.679-0.783,2.58-0.939c0.893-0.132,1.634-0.206,2.224-0.222c-0.183-0.241-0.345-0.498-0.487-0.772
			c-0.167-0.265-0.25-0.585-0.25-0.958c0-0.224,0.032-0.411,0.095-0.56c0.056-0.158,0.107-0.303,0.155-0.435
			c-0.287,0.033-0.558,0.05-0.812,0.05c-1.345-0.017-2.371-0.441-3.077-1.274c-0.738-0.775-1.108-1.678-1.108-2.709
			c0-1.246,0.523-2.374,1.57-3.389c0.719-0.594,1.465-0.977,2.24-1.158c0.767-0.156,1.486-0.225,2.157-0.225h5.056l-1.562,0.88
			h-1.559C19.32,11.36,19.499,11.491,19.697,11.681z M30,19.68h-2.68v2.64H26v-2.64h-2.68v-1.36H26v-2.64h1.32v2.64H30V19.68z"/>
	</g>
</g>
</svg>