<?xml version="1.0" encoding="utf-8"?>
<!-- Generator: Adobe Illustrator 18.0.0, SVG Export Plug-In . SVG Version: 6.00 Build 0)  -->
<!DOCTYPE svg PUBLIC "-//W3C//DTD SVG 1.1//EN" "http://www.w3.org/Graphics/SVG/1.1/DTD/svg11.dtd">
<svg version="1.1" id="Layer_1" xmlns="http://www.w3.org/2000/svg" xmlns:xlink="http://www.w3.org/1999/xlink" x="0px" y="0px"
	 viewBox="0 0 748.9 436.8" enable-background="new 0 0 748.9 436.8" xml:space="preserve">
<path d="M703.9,89.9H43.7C19.3,89.9,0,69.4,0,45S19.3,0,43.7,0h661.5c24.4,0,43.7,20.6,43.7,45S728.3,89.9,703.9,89.9z"/>
<path d="M703.9,269.8H43.7c-24.4,0-43.7-20.6-43.7-45s19.3-45,43.7-45h661.5c24.4,0,43.7,20.6,43.7,45S728.3,269.8,703.9,269.8z"/>
<path d="M703.9,436.8H43.7c-24.4,0-43.7-20.6-43.7-45s19.3-45,43.7-45h661.5c24.4,0,43.7,20.6,43.7,45
	C748.9,416.3,728.3,436.8,703.9,436.8z"/>
</svg>
