<?xml version="1.0" encoding="utf-8"?>
<!-- Generator: Adobe Illustrator 18.0.0, SVG Export Plug-In . SVG Version: 6.00 Build 0)  -->
<!DOCTYPE svg PUBLIC "-//W3C//DTD SVG 1.1//EN" "http://www.w3.org/Graphics/SVG/1.1/DTD/svg11.dtd">
<svg version="1.1" id="Layer_1" xmlns="http://www.w3.org/2000/svg" xmlns:xlink="http://www.w3.org/1999/xlink" x="0px" y="0px"
	 viewBox="0 0 79.7 34" enable-background="new 0 0 79.7 34" xml:space="preserve">
<path d="M76.3,7H3.9C2,7,0.5,5.4,0.5,3.5S2,0,3.9,0h72.5c1.9,0,3.4,1.6,3.4,3.5S78.2,7,76.3,7z"/>
<path d="M76.3,21H3.9c-1.9,0-3.4-1.6-3.4-3.5S2,14,3.9,14h72.5c1.9,0,3.4,1.6,3.4,3.5S78.2,21,76.3,21z"/>
<path d="M76.3,34H3.9c-1.9,0-3.4-1.6-3.4-3.5S2,27,3.9,27h72.5c1.9,0,3.4,1.6,3.4,3.5S78.2,34,76.3,34z"/>
</svg>
